Coordinates
version=1
nRows=14
nColumns=24
inDegrees=yes

Units are S.I. units (second, meters, Newtons, ...)
Angles are in degrees.

endheader
time	pelvis_tilt	pelvis_list	pelvis_rotation	pelvis_tx	pelvis_ty	pelvis_tz	hip_flexion_r	hip_adduction_r	hip_rotation_r	knee_angle_r	ankle_angle_r	subtalar_angle_r	mtp_angle_r	hip_flexion_l	hip_adduction_l	hip_rotation_l	knee_angle_l	ankle_angle_l	subtalar_angle_l	mtp_angle_l	lumbar_extension	lumbar_bending	lumbar_rotation
      3.92500000	    -11.31958152	      8.72106396	     -3.01806710	     -0.84222978	     -0.03705594	     -0.29286351	     13.28615541	    -15.68547415	     -7.01548225	    -58.56000120	    -28.91196876	    -19.44831050	      4.01064143	     30.53840035	      8.47142654	     -3.02733649	    -24.66235123	     -0.20914133	    -13.26864853	    -10.58005362	      8.23082742	     -9.65111637	      4.91046231
      3.93000000	    -11.29660189	      8.57688617	     -2.93250443	     -0.83492775	     -0.03561815	     -0.29360347	     14.31135902	    -15.36187188	     -6.73201306	    -59.62226814	    -27.65662334	    -19.67842699	      4.62166502	     29.84865246	      8.46659294	     -2.90489047	    -24.37021113	      0.18847058	    -13.09341242	    -10.33134065	      8.12072048	     -9.52526846	      4.70863123
      3.93500000	    -11.28216478	      8.42233299	     -2.84932916	     -0.82760783	     -0.03413463	     -0.29441741	     15.29769746	    -15.03425457	     -6.44378742	    -60.46266348	    -26.96755938	    -20.04684627	      7.97344838	     29.13276648	      8.45800416	     -2.73620726	    -23.98484796	      0.26721763	    -13.14064118	     -9.20345113	      8.03146313	     -9.37351128	      4.51599874
      3.94000000	    -11.21806849	      8.19183927	     -2.81391303	     -0.82028213	     -0.03250383	     -0.29507421	     16.23938186	    -14.59943868	     -6.21149000	    -61.28147018	    -25.74140168	    -20.00640112	      8.38689478	     28.35100531	      8.33776365	     -2.60166116	    -23.62446909	      0.69618328	    -12.90980620	     -9.05551106	      7.89765094	     -9.13921890	      4.35059068
      3.94500000	    -11.20783518	      8.01509897	     -2.74914194	     -0.81306479	     -0.03099704	     -0.29587500	     17.23292270	    -14.25967327	     -5.99800629	    -61.99147463	    -24.77117293	    -19.90443827	     10.65875931	     27.64346974	      8.28803368	     -2.46257584	    -23.24850456	      0.91046043	    -12.83587461	     -8.64997246	      7.80595608	     -8.94932085	      4.15415950
      3.95000000	    -11.15326932	      7.76016806	     -2.71925317	     -0.80587506	     -0.02939726	     -0.29652010	     18.16970049	    -13.80717868	     -5.83359239	    -62.64165619	    -23.58268534	    -19.61942056	     11.11394410	     26.88283409	      8.12848341	     -2.35055945	    -22.88733126	      1.28651370	    -12.60456563	     -8.52803681	      7.67198155	     -8.68204531	      3.98177562
      3.95500000	    -11.13442872	      7.53314742	     -2.66223688	     -0.79862039	     -0.02786256	     -0.29724298	     19.11877779	    -13.40929841	     -5.71716964	    -63.20122606	    -22.42393856	    -19.20481464	     11.74358520	     26.13456852	      8.01773451	     -2.16513504	    -22.47569077	      1.60670282	    -12.45561851	     -8.43123893	      7.59698261	     -8.43611495	      3.80506583
      3.96000000	    -11.11795727	      7.33650736	     -2.64587965	     -0.79147828	     -0.02635946	     -0.29798517	     20.08117027	    -13.03305941	     -5.54126239	    -63.66258525	    -21.45907233	    -18.79152246	     13.29258131	     25.38493934	      7.93871347	     -1.96017584	    -22.02283582	      1.76659816	    -12.53728817	     -8.45174477	      7.51779903	     -8.20132891	      3.67815784
      3.96500000	    -11.08776731	      7.00889345	     -2.49444962	     -0.78428397	     -0.02483387	     -0.29874241	     20.91712884	    -12.55686247	     -5.61784003	    -63.99044810	    -20.47785979	    -18.42576082	     13.93855605	     24.63444048	      7.74777264	     -1.68433936	    -21.64365653	      2.14686731	    -12.26978469	     -8.37890776	      7.40832923	     -7.86948692	      3.37790727
      3.97000000	    -11.06254978	      6.73865261	     -2.37028328	     -0.77716899	     -0.02337193	     -0.29947872	     21.77186741	    -12.13967116	     -5.65730054	    -64.26435773	    -19.43775016	    -17.95322543	     14.69686191	     23.88766518	      7.61054521	     -1.41600962	    -21.22528192	      2.37534077	    -12.18620897	     -8.40495527	      7.30601141	     -7.59017875	      3.13927872
      3.97500000	    -11.01096103	      6.54436624	     -2.30145821	     -0.77003854	     -0.02190752	     -0.30027188	     22.59792258	    -11.79608220	     -5.59697631	    -64.40720284	    -18.68637294	    -17.56821681	     16.89175991	     23.07199722	      7.56033392	     -1.12040010	    -20.71115364	      2.50161185	    -12.36475932	     -8.83859757	      7.19406834	     -7.35901384	      2.96684658
      3.98000000	    -11.00351345	      6.16114069	     -2.09421410	     -0.76304558	     -0.02052694	     -0.30099518	     23.39007634	    -11.27184480	     -5.80321897	    -64.47470679	    -17.81278010	    -17.30078777	     17.32312612	     22.37587039	      7.30393033	     -0.83256050	    -20.35034388	      2.84078322	    -12.11259866	     -8.80157264	      7.07851543	     -6.97952622	      2.60790872
      3.98500000	    -10.94907094	      5.92498196	     -1.87916643	     -0.75589418	     -0.01915427	     -0.30186996	     24.09003833	    -10.95432449	     -5.95939481	    -64.37386391	    -17.19873112	    -17.10542984	     20.26375459	     21.57293944	      7.23357157	     -0.47556395	    -19.88611173	      3.16014091	    -12.00589794	     -9.53939632	      6.95396207	     -6.74170878	      2.30552415
      3.99000000	    -10.93041814	      5.64491251	     -1.67219041	     -0.74881110	     -0.01787619	     -0.30258657	     24.83708473	    -10.56398216	     -6.16411083	    -64.29701065	    -16.19092303	    -16.70575840	     20.62284980	     20.83102972	      7.07206724	     -0.26086347	    -19.43122565	      3.37387839	    -11.83927363	     -9.52917353	      6.85788519	     -6.46535024	      1.99471357
